<?xml version="1.0" standalone="no"?>
<!DOCTYPE svg PUBLIC "-//W3C//DTD SVG 20010904//EN"
 "http://www.w3.org/TR/2001/REC-SVG-20010904/DTD/svg10.dtd">
<svg version="1.0" xmlns="http://www.w3.org/2000/svg"
 width="193.000000pt" height="50.000000pt" viewBox="0 0 193.000000 50.000000"
 preserveAspectRatio="xMidYMid meet">

<g transform="translate(0.000000,50.000000) scale(0.100000,-0.100000)"
fill="#000000" stroke="none">
<path d="M140 395 c0 -22 4 -25 39 -25 l39 0 7 -57 c9 -71 24 -94 86 -134 46
-29 52 -31 66 -16 18 18 11 45 -14 53 -65 21 -93 56 -93 119 0 34 1 35 40 35
36 0 40 3 40 25 l0 25 -105 0 -105 0 0 -25z"/>
<path d="M430 262 c0 -155 1 -159 24 -181 26 -25 109 -41 119 -24 3 5 3 19 0
31 -4 16 -13 22 -32 22 -41 0 -51 17 -51 92 l0 68 45 0 c43 0 45 1 45 30 0 29
-2 30 -45 30 l-45 0 0 45 c0 43 -1 45 -30 45 l-30 0 0 -158z"/>
<path d="M646 309 c-36 -29 -56 -70 -56 -119 0 -54 26 -97 72 -121 48 -25 89
-24 140 2 40 21 40 21 21 40 -18 18 -21 18 -50 4 -19 -10 -42 -13 -57 -9 -29
7 -69 51 -60 65 3 5 48 9 101 9 l95 0 -7 37 c-8 47 -40 91 -72 104 -42 16 -98
11 -127 -12z m114 -49 c29 -29 17 -40 -46 -40 -58 0 -66 10 -37 42 21 24 58
23 83 -2z"/>
<path d="M890 195 l0 -135 30 0 30 0 0 85 c0 74 3 87 22 105 12 11 34 20 50
20 24 0 28 4 28 30 0 26 -4 30 -28 30 -15 0 -38 -7 -50 -16 -20 -14 -22 -14
-22 0 0 11 -10 16 -30 16 l-30 0 0 -135z"/>
<path d="M1087 323 c-4 -3 -7 -64 -7 -135 l0 -128 35 0 35 0 0 85 c0 74 3 87
22 105 12 11 34 20 50 20 24 0 28 4 28 30 0 26 -4 30 -28 30 -15 0 -38 -7 -50
-16 -20 -14 -22 -14 -22 0 0 16 -49 23 -63 9z"/>
<path d="M1331 317 c-45 -23 -66 -63 -66 -127 1 -49 5 -64 25 -86 54 -57 113
-68 182 -33 40 21 40 21 21 40 -18 18 -21 18 -51 4 -47 -24 -112 3 -112 47 0
16 9 18 95 18 106 0 110 4 81 74 -28 67 -110 97 -175 63z m103 -56 c26 -28 12
-41 -44 -41 -57 0 -73 16 -40 42 29 23 62 23 84 -1z"/>
</g>
</svg>
